<svg width="40" height="40" viewBox="0 0 40 40" fill="none" xmlns="http://www.w3.org/2000/svg">
<g clip-path="url(#clip0_1_492)">
<path d="M39.0575 2.39251C39.0013 1.60126 38.3638 0.975011 37.5713 0.938761H37.5675C29.7913 0.612511 22.8713 3.91126 16.6963 10.9375H4.99878C4.27003 10.9375 3.65878 11.4363 3.48503 12.1113L3.48253 12.1225L0.982529 22.1225C0.952529 22.2363 0.936279 22.3663 0.936279 22.5013C0.936279 23.3638 1.63628 24.0638 2.49878 24.0638H8.10878C7.85378 24.565 7.59628 25.0488 7.34378 25.5675C7.24378 25.7675 7.18628 26.0025 7.18628 26.2513C7.18628 26.6825 7.36128 27.0738 7.64378 27.3563L12.6438 32.3563C12.9263 32.6388 13.3175 32.8125 13.7475 32.8125C14.005 32.8125 14.2475 32.75 14.4625 32.64L14.4538 32.6438C14.9513 32.3913 15.4425 32.1325 15.9363 31.8763V37.695C15.9375 38.5575 16.6363 39.2563 17.4988 39.2575C17.5 39.2575 17.5013 39.2575 17.5038 39.2575C17.6363 39.2575 17.765 39.24 17.8888 39.2088L17.8788 39.2113L27.8788 36.7113C28.5638 36.5363 29.0625 35.9238 29.0625 35.1963V23.51C35.455 18.1675 39.69 11.5138 39.0575 2.39251ZM4.50128 20.9375L6.22003 14.0625H14.1725C12.715 16.0288 11.2613 18.275 9.94628 20.6113L9.77753 20.9375H4.50128ZM25.9375 33.975L19.0625 35.6938V30.2C21.7663 28.705 24.0125 27.2863 26.1738 25.7575L25.9375 25.9163V33.975ZM14.0513 29.3413L10.645 25.9375C17.8863 11.4575 26.1975 4.27626 35.995 4.04501C36.0713 15.4438 27.3038 22.505 14.05 29.34L14.0513 29.3413ZM28.75 7.18751C26.5063 7.18751 24.6875 9.00626 24.6875 11.25C24.6875 13.4938 26.5063 15.3125 28.75 15.3125C30.9938 15.3125 32.8125 13.4938 32.8125 11.25C32.81 9.00751 30.9925 7.19001 28.75 7.18751ZM28.75 12.1875C28.2325 12.1875 27.8125 11.7675 27.8125 11.25C27.8125 10.7325 28.2325 10.3125 28.75 10.3125C29.2675 10.3125 29.6875 10.7325 29.6875 11.25C29.6875 11.7675 29.2675 12.1875 28.75 12.1875Z" fill="#808080"/>
</g>
<defs>
<clipPath id="clip0_1_492">
<rect width="40" height="40" fill="white"/>
</clipPath>
</defs>
</svg>
