<svg width="30" height="30" viewBox="0 0 30 30" fill="none" xmlns="http://www.w3.org/2000/svg">
<path d="M25 11.25C26.3261 11.25 27.5978 10.7232 28.5355 9.78553C29.4732 8.84785 30 7.57608 30 6.25V5C30 3.67392 29.4732 2.40215 28.5355 1.46447C27.5978 0.526784 26.3261 0 25 0H23.75C22.4239 0 21.1521 0.526784 20.2145 1.46447C19.2768 2.40215 18.75 3.67392 18.75 5V8.75H11.25V5C11.25 3.67392 10.7232 2.40215 9.78553 1.46447C8.84785 0.526784 7.57608 0 6.25 0H5C3.67392 0 2.40215 0.526784 1.46447 1.46447C0.526784 2.40215 0 3.67392 0 5V6.25C0 7.57608 0.526784 8.84785 1.46447 9.78553C2.40215 10.7232 3.67392 11.25 5 11.25H8.75V18.75H5C3.67392 18.75 2.40215 19.2768 1.46447 20.2145C0.526784 21.1521 0 22.4239 0 23.75V25C0 26.3261 0.526784 27.5979 1.46447 28.5355C2.40215 29.4732 3.67392 30 5 30H6.25C7.57608 30 8.84785 29.4732 9.78553 28.5355C10.7232 27.5979 11.25 26.3261 11.25 25V21.25H18.75V25C18.75 26.3261 19.2768 27.5979 20.2145 28.5355C21.1521 29.4732 22.4239 30 23.75 30H25C26.3261 30 27.5978 29.4732 28.5355 28.5355C29.4732 27.5979 30 26.3261 30 25V23.75C30 22.4239 29.4732 21.1521 28.5355 20.2145C27.5978 19.2768 26.3261 18.75 25 18.75H21.25V11.25H25ZM21.25 5C21.25 4.33696 21.5134 3.70107 21.9822 3.23223C22.4511 2.76339 23.087 2.5 23.75 2.5H25C25.663 2.5 26.2989 2.76339 26.7678 3.23223C27.2366 3.70107 27.5 4.33696 27.5 5V6.25C27.5 6.91304 27.2366 7.54893 26.7678 8.01777C26.2989 8.48661 25.663 8.75 25 8.75H21.25V5ZM5 8.75C4.33696 8.75 3.70107 8.48661 3.23223 8.01777C2.76339 7.54893 2.5 6.91304 2.5 6.25V5C2.5 4.33696 2.76339 3.70107 3.23223 3.23223C3.70107 2.76339 4.33696 2.5 5 2.5H6.25C6.91304 2.5 7.54892 2.76339 8.01777 3.23223C8.48661 3.70107 8.75 4.33696 8.75 5V8.75H5ZM8.75 25C8.75 25.663 8.48661 26.2989 8.01777 26.7678C7.54892 27.2366 6.91304 27.5 6.25 27.5H5C4.33696 27.5 3.70107 27.2366 3.23223 26.7678C2.76339 26.2989 2.5 25.663 2.5 25V23.75C2.5 23.087 2.76339 22.4511 3.23223 21.9822C3.70107 21.5134 4.33696 21.25 5 21.25H8.75V25ZM18.75 18.75H11.25V11.25H18.75V18.75ZM21.25 21.25H25C25.663 21.25 26.2989 21.5134 26.7678 21.9822C27.2366 22.4511 27.5 23.087 27.5 23.75V25C27.5 25.663 27.2366 26.2989 26.7678 26.7678C26.2989 27.2366 25.663 27.5 25 27.5H23.75C23.087 27.5 22.4511 27.2366 21.9822 26.7678C21.5134 26.2989 21.25 25.663 21.25 25V21.25Z" fill="#808080"/>
</svg>
