<svg width="100" height="100" viewBox="0 0 100 100" fill="none" xmlns="http://www.w3.org/2000/svg">
<path d="M74.3477 65.5234L51.3008 30.9531C50.9492 30.4258 50.3633 30.1133 49.7383 30.1133C49.1133 30.1133 48.5273 30.4258 48.1758 30.9531L25.1289 65.5234C24.8164 65.9922 24.7383 66.5781 24.8945 67.125C25.0703 67.6719 25.4609 68.1016 25.9883 68.3164C29.0547 69.5469 31.6523 71.6367 33.5078 74.3711C35.3633 77.1055 36.3398 80.2891 36.3398 83.5898V85.0156C36.3398 86.0508 37.1797 86.8906 38.2148 86.8906H61.2617C62.2969 86.8906 63.1367 86.0508 63.1367 85.0156V83.5898C63.1367 80.2891 64.1133 77.1055 65.9688 74.3711C67.8242 71.6367 70.4219 69.5469 73.4883 68.3164C74.0156 68.1016 74.4258 67.6719 74.582 67.125C74.7383 66.5781 74.6602 66.0117 74.3477 65.5234ZM49.7383 61.5391C51.2422 61.5391 52.4727 62.7695 52.4727 64.2734C52.4727 65.7773 51.2422 67.0078 49.7383 67.0078C48.2344 67.0078 47.0039 65.7773 47.0039 64.2734C47.0039 62.7695 48.2344 61.5391 49.7383 61.5391ZM69.7383 65.9336C66.9648 67.4766 64.6406 69.6055 62.8438 72.2617C60.7148 75.4062 59.5234 79.0781 59.3867 82.8672L59.3672 83.1406H40.0703V82.8672C39.9336 79.0781 38.7422 75.4062 36.6133 72.2617C34.8164 69.6055 32.4922 67.4766 29.7188 65.9336L29.4648 65.7969L29.6211 65.543L47.3555 38.9609L47.8633 38.1992V58.043L47.668 58.1016C45.0313 59 43.2539 61.4609 43.2539 64.2539C43.2539 67.8281 46.1641 70.7383 49.7383 70.7383C53.3125 70.7383 56.2227 67.8281 56.2227 64.2539C56.2227 61.4609 54.4453 59 51.8086 58.1016L51.6133 58.043V38.1992L52.1211 38.9609L69.8555 65.543L70.0117 65.7969L69.7383 65.9336Z" fill="url(#paint0_linear_35_413)"/>
<path d="M78.7031 22.6133C79.6016 25.25 82.0625 27.0273 84.8555 27.0273C88.4297 27.0273 91.3398 24.1172 91.3398 20.543C91.3398 16.9688 88.4297 14.0586 84.8555 14.0586C82.0625 14.0586 79.6016 15.8359 78.7031 18.4727L78.6445 18.668H56.2227V15.875C56.2227 14.8398 55.3828 14 54.3477 14H45.1289C44.0938 14 43.2539 14.8398 43.2539 15.875V18.668H20.6953L20.6367 18.4727C19.7578 15.8359 17.2773 14.0586 14.4844 14.0586C10.9102 14.0586 8 16.9688 8 20.543C8 24.1172 10.9102 27.0273 14.4844 27.0273C17.2773 27.0273 19.7383 25.25 20.6367 22.6133L20.6953 22.418H31.2617C29.2891 23.5898 27.4336 25.0352 25.793 26.6953C21.1836 31.3633 18.4102 37.5156 17.9805 44.0195L17.9609 44.1953L17.7852 44.2539C15.1094 45.1328 13.293 47.6133 13.293 50.4258C13.293 54 16.2031 56.9102 19.7773 56.9102C23.3516 56.9102 26.2617 54 26.2617 50.4258C26.2617 47.6719 24.5039 45.2109 21.9063 44.293L21.7109 44.2344L21.7305 44.0195C22.6094 32.5742 31.5352 23.5117 42.9609 22.4375L43.2539 22.418V25.0742C43.2539 26.1094 44.0938 26.9492 45.1289 26.9492H54.3477C55.3828 26.9492 56.2227 26.1094 56.2227 25.0742V22.418L56.5156 22.4375C67.9414 23.4922 76.8672 32.5742 77.7461 44.0195L77.7656 44.2344L77.5703 44.293C74.9531 45.2109 73.2149 47.6719 73.2149 50.4258C73.2149 54 76.125 56.9102 79.6992 56.9102C83.2734 56.9102 86.1836 54 86.1836 50.4258C86.1836 47.6133 84.3867 45.1328 81.7109 44.2539L81.5352 44.1953L81.5156 44.0195C81.0859 37.5156 78.3125 31.3437 73.7031 26.6953C72.0625 25.0352 70.207 23.5898 68.2344 22.418H78.6445L78.7031 22.6133ZM84.8555 17.8086C86.3594 17.8086 87.5898 19.0391 87.5898 20.543C87.5898 22.0469 86.3594 23.2773 84.8555 23.2773C83.3516 23.2773 82.1211 22.0469 82.1211 20.543C82.1211 19.0391 83.3516 17.8086 84.8555 17.8086ZM14.4648 23.2773C12.9609 23.2773 11.7305 22.0469 11.7305 20.543C11.7305 19.0391 12.9609 17.8086 14.4648 17.8086C15.9688 17.8086 17.1992 19.0391 17.1992 20.543C17.1992 22.0469 15.9688 23.2773 14.4648 23.2773ZM22.5117 50.4453C22.5117 51.9492 21.2813 53.1797 19.7773 53.1797C18.2734 53.1797 17.043 51.9492 17.043 50.4453C17.043 48.9414 18.2734 47.7109 19.7773 47.7109C21.2813 47.7109 22.5117 48.9414 22.5117 50.4453ZM52.4727 23.2188H47.0039V17.75H52.4727V23.2188ZM82.4141 50.4453C82.4141 51.9492 81.1836 53.1797 79.6797 53.1797C78.1758 53.1797 76.9453 51.9492 76.9453 50.4453C76.9453 48.9414 78.1758 47.7109 79.6797 47.7109C81.2031 47.7109 82.4141 48.9414 82.4141 50.4453Z" fill="url(#paint1_linear_35_413)"/>
<defs>
<linearGradient id="paint0_linear_35_413" x1="49.7383" y1="30.1133" x2="49.7383" y2="86.8906" gradientUnits="userSpaceOnUse">
<stop stop-color="#66D7EC"/>
<stop offset="1" stop-color="#3B8EDB"/>
</linearGradient>
<linearGradient id="paint1_linear_35_413" x1="49.6699" y1="14" x2="49.6699" y2="56.9102" gradientUnits="userSpaceOnUse">
<stop stop-color="#66D7EC"/>
<stop offset="1" stop-color="#3B8EDB"/>
</linearGradient>
</defs>
</svg>
