<?xml version="1.0" encoding="utf-8"?>
<!-- Generator: Adobe Illustrator 18.0.0, SVG Export Plug-In . SVG Version: 6.00 Build 0)  -->
<!DOCTYPE svg PUBLIC "-//W3C//DTD SVG 1.1//EN" "http://www.w3.org/Graphics/SVG/1.1/DTD/svg11.dtd" [
	<!ENTITY ns_flows "http://ns.adobe.com/Flows/1.0/">
	<!ENTITY ns_extend "http://ns.adobe.com/Extensibility/1.0/">
	<!ENTITY ns_ai "http://ns.adobe.com/AdobeIllustrator/10.0/">
	<!ENTITY ns_graphs "http://ns.adobe.com/Graphs/1.0/">
]>
<svg version="1.1" id="Layer_1" xmlns:x="&ns_extend;" xmlns:i="&ns_ai;" xmlns:graph="&ns_graphs;"
	 xmlns="http://www.w3.org/2000/svg" xmlns:xlink="http://www.w3.org/1999/xlink" xmlns:a="http://ns.adobe.com/AdobeSVGViewerExtensions/3.0/"
	 x="0px" y="0px" width="100px" height="33.3px" viewBox="0 0 100 33.3" enable-background="new 0 0 100 33.3" xml:space="preserve"
	>
<polygon id="XMLID_8_" fill="#2F363C" points="1475.3,228.7 1475.3,191.1 1437.7,191.1 1437.7,153.5 1475.3,153.5 1475.3,91.4 
	1398.7,135 1398.5,228.7 "/>
<rect id="XMLID_4_" x="1512.9" y="191.1" fill="#2F363C" width="37.6" height="37.6"/>
<rect id="XMLID_5_" x="2272.3" y="-344.3" fill="#2F363C" width="37.6" height="37.6"/>
<polygon id="XMLID_3_" fill="#3BC2DB" points="1512.9,153.5 1550.6,153.5 1550.6,115.9 1588.2,115.9 1588.2,153.5 1661.2,153.5 
	1661.2,135 1530.1,59.9 1512.9,69.9 "/>
<polygon id="XMLID_2_" fill="#2F363C" points="1550.6,266.3 1512.9,266.3 1512.9,304 1475.3,304 1475.3,266.3 1398.5,266.3 
	1398.5,285.4 1530,360.8 1550.6,349.2 "/>
<polygon id="XMLID_1_" fill="#3BC2DB" points="1588.2,191.1 1588.2,228.7 1625.8,228.7 1625.8,266.3 1588.2,266.3 1588.2,327.6 
	1661.4,285.4 1661.2,191.1 "/>
<g>
	<path fill="#40C3DA" d="M3133.6,292.3h-34.8v-95.6h-98.6v95.6h-35V82.5h35v84h98.6v-84h34.8V292.3z"/>
	<path fill="#40C3DA" d="M3352.5,292.3H3316l-21.5-58h-82.7l-20.2,58h-35.4l77.4-209.8h38.4L3352.5,292.3z M3221.3,206.4h64
		l-31.4-86.8h-3L3221.3,206.4z"/>
	<path fill="#40C3DA" d="M3454.4,295.9c-14.4,0-27.1-1.7-38.2-5c-11-3.3-20.2-8.1-27.8-14.2s-13.4-13.7-17.5-22.6
		c-4.1-8.9-6.3-19-6.7-30.2h33.3c0.6,7,2.5,13.2,5.7,18.5c3.1,5.3,7.2,9.8,12.2,13.3c5,3.5,10.8,6.2,17.4,8.1s13.6,2.8,21.1,2.8
		c7.1,0,13.7-0.8,19.7-2.3s11.1-3.8,15.4-6.6c4.2-2.8,7.6-6.2,10-10.2c2.4-4,3.5-8.4,3.5-13.2c0-5.4-1.2-9.8-3.7-13.4
		s-6.4-6.7-11.7-9.4c-5.3-2.6-12.1-5-20.4-7.3c-8.3-2.2-18.3-4.6-30.1-7.2c-11-2.5-20.6-5.4-28.8-8.8c-8.2-3.4-14.9-7.4-20.2-12.2
		c-5.4-4.7-9.4-10.2-12-16.3c-2.6-6.2-3.9-13.2-3.9-21.3c0-8.8,1.8-16.8,5.7-24.2c3.8-7.4,9-13.5,15.9-18.7
		c6.9-5.1,15.1-9.2,24.6-12.1c9.6-2.9,20.2-4.3,32-4.3c12.2,0,23.2,1.4,33.1,4.2s18.4,7,25.4,12.5c7,5.4,12.6,12.2,16.6,20.1
		c4,7.9,6.2,17,6.6,27h-33.8c-2.5-23-18.3-34.5-47.5-34.5c-6.9,0-13.1,0.7-18.6,2.2c-5.5,1.4-10.2,3.4-14.1,6
		c-3.8,2.6-6.8,5.7-8.9,9.2c-2.1,3.5-3.1,7.4-3.1,11.5c0,3.4,0.8,6.5,2.4,9.3s4.2,5.4,7.8,7.8c3.6,2.4,8.3,4.6,14.2,6.6
		c5.8,2.1,13.1,4.1,21.8,6c7.5,1.8,14.9,3.5,22.1,5.3c7.2,1.8,13.9,3.8,20.2,6c6.3,2.2,12,4.9,17.3,7.9c5.2,3,9.7,6.6,13.4,10.8
		c3.8,4.2,6.7,9.2,8.8,15c2.1,5.8,3.2,12.4,3.2,20c0,9.6-2,18.3-6.1,26.2c-4.1,7.8-9.8,14.6-17,20.1c-7.3,5.6-15.9,9.8-26,12.9
		C3477.4,294.3,3466.5,295.9,3454.4,295.9z"/>
	<path fill="#40C3DA" d="M3741.3,292.3h-34.8v-95.6h-98.6v95.6h-35V82.5h35v84h98.6v-84h34.8V292.3z"/>
</g>
<g>
	<path fill="#2F363C" d="M2981.1,339.6c0,1.5-0.4,2.8-1.1,4c-0.7,1.2-1.8,2.1-3.3,2.7c-1.4,0.6-3.1,1-5,1c-1.6,0-3-0.1-4.1-0.3
		c-1.1-0.2-2.2-0.6-3.4-1.2V340c1.3,0.6,2.6,1.1,3.9,1.5c1.4,0.3,2.6,0.6,3.7,0.6c1,0,1.7-0.2,2.2-0.5c0.5-0.3,0.6-0.8,0.6-1.3
		c0-0.3-0.1-0.6-0.2-0.9c-0.2-0.2-0.5-0.5-0.9-0.7c-0.4-0.2-1.4-0.8-3.2-1.5c-1.6-0.7-2.7-1.4-3.5-2.1c-0.8-0.6-1.4-1.4-1.8-2.3
		c-0.4-0.9-0.6-1.9-0.6-3.1c0-2.2,0.8-3.9,2.4-5.2s3.8-1.8,6.6-1.8c2.5,0,5,0.6,7.7,1.8l-2,5c-2.2-1-4.2-1.5-5.8-1.5
		c-0.9,0-1.4,0.2-1.8,0.5c-0.4,0.3-0.6,0.6-0.6,1.1c0,0.5,0.2,0.9,0.7,1.3c0.5,0.4,1.8,1,4,2.1c2.1,1,3.5,1.9,4.3,3
		C2980.7,336.7,2981.1,338,2981.1,339.6z"/>
	<path fill="#2F363C" d="M3078.5,334.9c0,4.1-1,7.1-3,9.3c-2,2.1-4.9,3.2-8.7,3.2c-3.8,0-6.7-1-8.7-3.2c-2-2.2-3-5.2-3-9.3
		c0-4,1-7.1,3-9.2c2-2.2,5-3.2,8.8-3.2s6.7,1,8.7,3.1C3077.5,327.7,3078.5,330.8,3078.5,334.9z M3061.9,334.9c0,4.6,1.6,7,4.9,7
		c1.7,0,2.9-0.6,3.7-1.7c0.8-1.1,1.2-2.9,1.2-5.3s-0.4-4.2-1.2-5.4c-0.8-1.1-2-1.8-3.6-1.8C3063.5,327.8,3061.9,330.2,3061.9,334.9z
		"/>
	<path fill="#2F363C" d="M3160.3,347h-6.4v-24.2h14.2v5.2h-7.8v4.6h7.2v5.2h-7.2V347z"/>
	<path fill="#2F363C" d="M3253.8,347h-6.6v-18.8h-5.9v-5.4h18.3v5.4h-5.9L3253.8,347L3253.8,347z"/>
	<path fill="#2F363C" d="M3360.3,347h-7.7l-2.3-10.6c-0.1-0.5-0.3-1.3-0.6-2.6c-0.2-1.3-0.4-2.4-0.5-3.3c-0.1,0.7-0.2,1.6-0.4,2.6
		c-0.2,1-0.4,2.1-0.6,3c-0.2,0.9-1,4.5-2.4,10.8h-7.7l-6-24.2h6.3l2.6,12.1c0.6,2.6,1,4.8,1.2,6.4c0.2-1.1,0.4-2.6,0.8-4.6
		c0.4-1.9,0.7-3.5,1-4.8l2.2-9.1h6.1l2.1,9.1c0.3,1.4,0.7,3.1,1,5s0.6,3.4,0.7,4.3c0.2-1.2,0.6-3.4,1.2-6.4l2.6-12.2h6.3L3360.3,347
		z"/>
	<path fill="#2F363C" d="M3455.2,347l-1.2-4.6h-7.8l-1.2,4.6h-7.2l7.9-24.2h8.7l8,24.2H3455.2z M3452.7,337.2l-1-4
		c-0.2-0.9-0.6-2-0.9-3.4s-0.6-2.4-0.7-3c-0.1,0.6-0.3,1.5-0.6,2.8c-0.2,1.3-1,3.8-1.9,7.6L3452.7,337.2L3452.7,337.2z"/>
	<path fill="#2F363C" d="M3542.5,338.2v8.8h-6.6v-24.2h7.9c6.6,0,9.8,2.4,9.8,7.1c0,2.8-1.4,5-4.1,6.5l7,10.6h-7.4l-5.1-8.8H3542.5z
		 M3542.5,333.3h1.2c2.3,0,3.4-1,3.4-3c0-1.7-1.1-2.5-3.4-2.5h-1.3L3542.5,333.3L3542.5,333.3z"/>
	<path fill="#2F363C" d="M3644.3,347H3630v-24.2h14.3v5.2h-7.8v3.8h7.2v5.2h-7.2v4.6h7.8V347z"/>
	<path fill="#2F363C" d="M3735.4,339.6c0,1.5-0.4,2.8-1.1,4c-0.8,1.2-1.8,2.1-3.3,2.7c-1.4,0.6-3.1,1-5,1c-1.6,0-3-0.1-4.1-0.3
		c-1.1-0.2-2.2-0.6-3.4-1.2V340c1.3,0.6,2.6,1.1,3.9,1.5c1.4,0.3,2.6,0.6,3.7,0.6c1,0,1.7-0.2,2.2-0.5c0.5-0.3,0.6-0.8,0.6-1.3
		c0-0.3-0.1-0.6-0.2-0.9c-0.2-0.2-0.5-0.5-0.9-0.7c-0.4-0.2-1.4-0.8-3.2-1.5c-1.6-0.7-2.7-1.4-3.5-2.1c-0.8-0.6-1.4-1.4-1.8-2.3
		c-0.4-0.9-0.6-1.9-0.6-3.1c0-2.2,0.8-3.9,2.4-5.2s3.8-1.8,6.6-1.8c2.5,0,5,0.6,7.7,1.8l-2,5c-2.2-1-4.2-1.5-5.8-1.5
		c-0.9,0-1.4,0.2-1.8,0.5c-0.4,0.3-0.6,0.6-0.6,1.1c0,0.5,0.2,0.9,0.7,1.3c0.5,0.4,1.8,1,4,2.1c2.1,1,3.5,1.9,4.3,3
		C3735,336.7,3735.4,338,3735.4,339.6z"/>
</g>
<text transform="matrix(1 0 0 1 1694.7938 284.5065)" fill="#40C3DA" font-family="'Montserrat-Regular'" font-size="213.0343">Hash</text>
<path d="M1736.3,316.3l-2.3,5c-2.8-1.7-6.1-2.7-8.3-2.7c-2,0-3.4,0.7-3.4,2.2c0,4.9,14.1,2.2,14.1,11.7c0,5.2-4.5,8-10.4,8
	c-4.4,0-8.7-1.7-11.7-4.2l2.4-4.9c2.7,2.4,6.6,4,9.4,4c2.5,0,3.9-0.9,3.9-2.5c0-5-14.1-2.1-14.1-11.5c0-4.8,4.1-7.9,10.3-7.9
	C1729.9,313.5,1733.7,314.6,1736.3,316.3z"/>
<path d="M1820.4,327c0,7.7-6.1,13.5-14.3,13.5s-14.3-5.8-14.3-13.5c0-7.7,6.1-13.5,14.3-13.5S1820.4,319.3,1820.4,327z M1798,327
	c0,4.7,3.8,8.3,8.2,8.3c4.4,0,8-3.6,8-8.3c0-4.7-3.6-8.2-8-8.2C1801.8,318.8,1798,322.3,1798,327z"/>
<path d="M1883.3,318.7v6.5h12v5h-12v10.1h-6v-26.6h19.1l0,5H1883.3z"/>
<path d="M1970.6,318.8v21.5h-6v-21.5h-8.1v-5.1h22.2v5.1H1970.6z"/>
<path d="M2053.8,340.3l-5.3-18.9l-5.5,18.9h-6.2l-8.8-26.6h6.4l5.6,20l5.5-20h5.9l5.6,20l5.5-20h6.1l-8.8,26.6H2053.8z"/>
<path d="M2122.9,335.1l-2.1,5.2h-6.2l11.5-26.6h6.2l11.3,26.6h-6.4l-2.1-5.2H2122.9z M2129,320l-4.2,10.3h8.4L2129,320z"/>
<path d="M2210.4,332.7h-0.6h-5.5v7.6h-6v-26.6h11.5c6.9,0,10.9,3.3,10.9,9.2c0,4.1-1.7,7.1-5,8.6l5.7,8.8h-6.8L2210.4,332.7z
	 M2209.8,327.7c3.3,0,5.2-1.5,5.2-4.6c0-3-1.9-4.4-5.2-4.4h-5.5v9H2209.8z"/>
<path d="M2286.3,318.8v5.8h12.8v5h-12.8v5.9h14.6v5h-20.6v-26.6h20.2v5H2286.3z"/>
<g>
	<polygon id="XMLID_11_" fill="#2F363C" points="8.5,18.7 8.5,14.5 4.3,14.5 4.3,10.4 8.5,10.4 8.5,3.5 0,8.3 0,18.7 	"/>
	<rect id="XMLID_10_" x="12.7" y="14.5" fill="#2F363C" width="4.2" height="4.2"/>
	<polygon id="XMLID_9_" fill="#3BC2DB" points="12.7,10.4 16.8,10.4 16.8,6.2 21,6.2 21,10.4 29.1,10.4 29.1,8.3 14.6,0 12.7,1.1 	
		"/>
	<polygon id="XMLID_7_" fill="#2F363C" points="16.8,22.9 12.7,22.9 12.7,27 8.5,27 8.5,22.9 0,22.9 0,25 14.6,33.3 16.8,32.1 	"/>
	<polygon id="XMLID_6_" fill="#3BC2DB" points="21,14.5 21,18.7 25.2,18.7 25.2,22.9 21,22.9 21,29.7 29.1,25 29.1,14.5 	"/>
	<g>
		<path fill="#40C3DA" d="M46.5,24.9V18h-8.8v6.8H35V8.4h2.8v7.2h8.8V8.4h2.8v16.5H46.5z"/>
		<path fill="#40C3DA" d="M56,21.2l-1.6,3.7h-2.9l7.3-16.5h2.9l7.2,16.5h-3l-1.6-3.7H56z M60.2,11.3l-3.1,7.3h6.2L60.2,11.3z"/>
		<path fill="#40C3DA" d="M82.2,9.9L81,12.4c-1.8-1.1-3.6-1.5-4.8-1.5c-1.6,0-2.7,0.6-2.7,1.7c0,3.6,8.9,1.7,8.9,7.6
			c0,3-2.6,4.8-6.2,4.8c-2.6,0-5.1-1.1-6.8-2.6l1.2-2.4c1.7,1.6,3.8,2.4,5.6,2.4c1.9,0,3.1-0.7,3.1-2c0-3.7-8.9-1.6-8.9-7.5
			c0-2.8,2.4-4.6,6-4.6C78.5,8.2,80.6,8.9,82.2,9.9z"/>
		<path fill="#40C3DA" d="M97.2,24.9V18h-8.8v6.8h-2.8V8.4h2.8v7.2h8.8V8.4h2.8v16.5H97.2z"/>
	</g>
	<path d="M37.4,28.4L37.2,29c-0.3-0.2-0.7-0.3-0.9-0.3c-0.2,0-0.4,0.1-0.4,0.2c0,0.5,1.6,0.2,1.6,1.3c0,0.6-0.5,0.9-1.2,0.9
		c-0.5,0-1-0.2-1.3-0.5l0.3-0.5c0.3,0.3,0.7,0.4,1,0.4c0.3,0,0.4-0.1,0.4-0.3c0-0.6-1.6-0.2-1.6-1.3c0-0.5,0.5-0.9,1.1-0.9
		C36.7,28.1,37.1,28.2,37.4,28.4z"/>
	<path d="M46.8,29.6c0,0.8-0.7,1.5-1.6,1.5s-1.6-0.6-1.6-1.5c0-0.9,0.7-1.5,1.6-1.5S46.8,28.7,46.8,29.6z M44.3,29.6
		c0,0.5,0.4,0.9,0.9,0.9c0.5,0,0.9-0.4,0.9-0.9c0-0.5-0.4-0.9-0.9-0.9C44.7,28.7,44.3,29.1,44.3,29.6z"/>
	<path d="M53.7,28.7v0.7h1.3V30h-1.3v1.1h-0.7v-2.9h2.1l0,0.6H53.7z"/>
	<path d="M63.4,28.7v2.4h-0.7v-2.4h-0.9v-0.6h2.5v0.6H63.4z"/>
	<path d="M72.6,31.1L72,29l-0.6,2.1h-0.7l-1-2.9h0.7l0.6,2.2l0.6-2.2h0.7l0.6,2.2l0.6-2.2h0.7l-1,2.9H72.6z"/>
	<path d="M80.3,30.5L80,31.1h-0.7l1.3-2.9h0.7l1.3,2.9h-0.7l-0.2-0.6H80.3z M81,28.8L80.5,30h0.9L81,28.8z"/>
	<path d="M90,30.2L90,30.2h-0.7v0.8h-0.7v-2.9h1.3c0.8,0,1.2,0.4,1.2,1c0,0.5-0.2,0.8-0.6,0.9l0.6,1h-0.8L90,30.2z M89.9,29.7
		c0.4,0,0.6-0.2,0.6-0.5c0-0.3-0.2-0.5-0.6-0.5h-0.6v1H89.9z"/>
	<path d="M98.4,28.7v0.6h1.4v0.6h-1.4v0.7h1.6v0.6h-2.3v-2.9h2.2v0.6H98.4z"/>
</g>
</svg>
