<svg width="100" height="100" viewBox="0 0 100 100" fill="none" xmlns="http://www.w3.org/2000/svg">
<path d="M81.4922 61.5117H72.2148C69.5195 61.5117 67.0977 63.2305 66.1992 65.7695L66.1211 66.0039H60.6719V47.3711H66.1211L66.1992 47.6055C67.0977 50.1641 69.5195 51.8633 72.2148 51.8633H81.4922C85.0078 51.8633 87.8789 48.9922 87.8789 45.4766C87.8789 41.9609 85.0078 39.0898 81.4922 39.0898H72.2148C69.5195 39.0898 67.0977 40.8086 66.1992 43.3477L66.1211 43.582H60.6719V18.3867C60.6719 14.8711 57.8008 12 54.2852 12H18.3867C14.8711 12 12 14.8711 12 18.3867V81.5117C12 85.0273 14.8711 87.8984 18.3867 87.8984H54.2852C57.8008 87.8984 60.6719 85.0273 60.6719 81.5117V69.793H66.1211L66.1992 70.0273C67.0977 72.5664 69.5195 74.2852 72.2148 74.2852H81.4922C85.0078 74.2852 87.8789 71.4141 87.8789 67.8984C87.8789 64.3828 85.0078 61.5117 81.4922 61.5117ZM72.2148 42.8789H81.4922C82.918 42.8789 84.0703 44.0312 84.0703 45.457C84.0703 46.8828 82.918 48.0352 81.4922 48.0352H72.2148C70.7891 48.0352 69.6367 46.8828 69.6367 45.457C69.6367 44.0312 70.7891 42.8789 72.2148 42.8789ZM56.8438 81.5312C56.8438 82.957 55.6914 84.1094 54.2656 84.1094H18.3672C16.9414 84.1094 15.7891 82.957 15.7891 81.5312V78.9531H56.8633V81.5312H56.8438ZM56.8438 43.5625H51.5508L51.5117 43.2695C50.4375 35.7695 43.8945 30.1055 36.2969 30.1055C27.8203 30.1055 20.9258 37 20.9258 45.4766C20.9258 53.9531 27.8203 60.8477 36.2969 60.8477C43.8945 60.8477 50.418 55.1836 51.5117 47.6836L51.5508 47.3906H56.8438V66.0234H54.2656C53.2109 66.0234 52.3711 66.8828 52.3711 67.918C52.3711 68.9726 53.2305 69.8125 54.2656 69.8125H56.8438V75.125H15.7695V24.793H56.8438V43.5625ZM36.3164 51.8633C38.6797 51.8633 40.8672 53.0352 42.1953 55.0078L42.3906 55.3203L42.0781 55.4961C40.3203 56.5117 38.3281 57.0391 36.3164 57.0391C34.3047 57.0391 32.293 56.5117 30.5547 55.4961L30.2422 55.3203L30.4375 55.0078C31.7461 53.0352 33.9531 51.8633 36.3164 51.8633ZM33.7188 45.4766C33.7188 44.0508 34.8711 42.8984 36.2969 42.8984C37.7227 42.8984 38.875 44.0508 38.875 45.4766C38.875 46.9023 37.7227 48.0547 36.2969 48.0547C34.8711 48.0547 33.7188 46.9023 33.7188 45.4766ZM41.7266 49.5195L41.4141 49.3438L41.6094 49.0508C42.3125 47.9961 42.6836 46.7656 42.6836 45.4961C42.6836 41.9805 39.8125 39.1094 36.2969 39.1094C32.7812 39.1094 29.9102 41.9805 29.9102 45.4961C29.9102 46.7656 30.2813 47.9961 30.9844 49.0508L31.1797 49.3438L30.8672 49.5195C29.5781 50.2617 28.4844 51.2383 27.5859 52.4102L27.3125 52.7812L27.0391 52.4102C25.5156 50.3984 24.7148 47.9961 24.7148 45.4766C24.7148 39.1094 29.8906 33.9141 36.2773 33.9141C42.6641 33.9141 47.8398 39.0898 47.8398 45.4766C47.8398 47.9961 47.0391 50.3984 45.5352 52.4102L45.2617 52.7812L44.9883 52.4102C44.1289 51.2188 43.0156 50.2422 41.7266 49.5195ZM56.8438 20.9844H15.7695V18.4063C15.7695 16.9805 16.9219 15.8281 18.3477 15.8281H54.2461C55.6719 15.8281 56.8242 16.9805 56.8242 18.4063V20.9844H56.8438ZM81.4922 70.4961H72.2148C70.7891 70.4961 69.6367 69.3437 69.6367 67.918C69.6367 66.4922 70.7891 65.3398 72.2148 65.3398H81.4922C82.918 65.3398 84.0703 66.4922 84.0703 67.918C84.0703 69.3437 82.918 70.4961 81.4922 70.4961Z" fill="url(#paint0_linear_35_424)"/>
<path d="M38.2109 67.918C38.2109 68.9727 37.3516 69.8125 36.3164 69.8125C35.2813 69.8125 34.4219 68.9531 34.4219 67.918C34.4219 66.8633 35.2813 66.0234 36.3164 66.0234C37.3516 66.0234 38.2109 66.8633 38.2109 67.918Z" fill="url(#paint1_linear_35_424)"/>
<path d="M47.1953 67.918C47.1953 68.9727 46.3359 69.8125 45.3008 69.8125C44.2461 69.8125 43.4062 68.9531 43.4062 67.918C43.4062 66.8632 44.2656 66.0234 45.3008 66.0234C46.3359 66.0039 47.1953 66.8632 47.1953 67.918Z" fill="url(#paint2_linear_35_424)"/>
<path d="M29.2461 67.918C29.2461 68.9727 28.3867 69.8125 27.3516 69.8125C26.3164 69.8125 25.457 68.9531 25.457 67.918C25.457 66.8633 26.3164 66.0234 27.3516 66.0234C28.3867 66.0234 29.2461 66.8633 29.2461 67.918Z" fill="url(#paint3_linear_35_424)"/>
<defs>
<linearGradient id="paint0_linear_35_424" x1="49.9395" y1="12" x2="49.9395" y2="87.8984" gradientUnits="userSpaceOnUse">
<stop stop-color="#66D7EC"/>
<stop offset="1" stop-color="#3B8EDB"/>
</linearGradient>
<linearGradient id="paint1_linear_35_424" x1="36.3164" y1="66.0234" x2="36.3164" y2="69.8125" gradientUnits="userSpaceOnUse">
<stop stop-color="#66D7EC"/>
<stop offset="1" stop-color="#3B8EDB"/>
</linearGradient>
<linearGradient id="paint2_linear_35_424" x1="45.3008" y1="66.0231" x2="45.3008" y2="69.8125" gradientUnits="userSpaceOnUse">
<stop stop-color="#66D7EC"/>
<stop offset="1" stop-color="#3B8EDB"/>
</linearGradient>
<linearGradient id="paint3_linear_35_424" x1="27.3516" y1="66.0234" x2="27.3516" y2="69.8125" gradientUnits="userSpaceOnUse">
<stop stop-color="#66D7EC"/>
<stop offset="1" stop-color="#3B8EDB"/>
</linearGradient>
</defs>
</svg>
