<svg width="100" height="100" viewBox="0 0 100 100" fill="none" xmlns="http://www.w3.org/2000/svg">
<path d="M82.7383 77.6016C85.8242 77.6016 88.3242 75.1016 88.3242 72.0156V18.8516C88.3242 14.5156 84.8086 11 80.4727 11H18.8711C14.5352 11 11.0195 14.5156 11.0195 18.8516V72.0156C11.0195 75.1016 13.5195 77.6016 16.6055 77.6016H17.8945V84.5547H12.875C11.8398 84.5547 11 85.3945 11 86.4297C11 87.4648 11.8398 88.3047 12.875 88.3047H86.4492C87.4844 88.3047 88.3242 87.4648 88.3242 86.4297C88.3242 85.3945 87.4844 84.5547 86.4492 84.5547H81.4297V77.6016H82.7383ZM60.9609 67.9727V84.5742H55.1211V67.9727H60.9609ZM44.2227 55.3164V84.5547H38.3828V55.3164H44.2227ZM27.4648 71.8594V84.5742H21.625V71.8594H27.4648ZM14.75 25.4922H84.5938V72.0156C84.5938 73.0312 83.7539 73.8711 82.7383 73.8711H81.4492V51.2148C81.4492 50.1797 80.6094 49.3398 79.5742 49.3398H70.0039C68.9687 49.3398 68.1289 50.1797 68.1289 51.2148V58.7734C68.1289 59.8086 68.9687 60.6484 70.0039 60.6484C71.0391 60.6484 71.8789 59.8086 71.8789 58.7734V53.0898H77.7187V84.5742H71.8789V68.832C71.8789 67.7969 71.0391 66.957 70.0039 66.957C68.9687 66.957 68.1289 67.7969 68.1289 68.832V84.5742H64.6914V66.0977C64.6914 65.0625 63.8516 64.2227 62.8164 64.2227H53.2461C52.2109 64.2227 51.3711 65.0625 51.3711 66.0977V84.5742H47.9336V53.4609C47.9336 52.4258 47.0938 51.5859 46.0586 51.5859H36.4883C35.4531 51.5859 34.6133 52.4258 34.6133 53.4609V84.5742H31.1758V69.9844C31.1758 68.9492 30.3359 68.1094 29.3008 68.1094H19.7305C18.6953 68.1094 17.8555 68.9492 17.8555 69.9844V73.8711H16.5664C15.5508 73.8711 14.7109 73.0312 14.7109 72.0156V25.4922H14.75ZM14.75 21.7617V18.8516C14.75 16.5859 16.6055 14.7305 18.8711 14.7305H80.4727C82.7383 14.7305 84.5938 16.5859 84.5938 18.8516V21.7617H14.75Z" fill="url(#paint0_linear_35_397)"/>
<path d="M78.3828 16.3906H44.5937C43.5586 16.3906 42.7188 17.2305 42.7188 18.2656C42.7188 19.3008 43.5586 20.1406 44.5937 20.1406H78.3828C79.4179 20.1406 80.2578 19.3008 80.2578 18.2656C80.2578 17.2109 79.4179 16.3906 78.3828 16.3906Z" fill="url(#paint1_linear_35_397)"/>
<path d="M26.9375 16.3906C26.4492 16.3906 25.9609 16.5859 25.6094 16.9375C25.2578 17.2891 25.0625 17.7578 25.0625 18.2656C25.0625 18.7539 25.2578 19.2422 25.6094 19.5938C25.9609 19.9453 26.4297 20.1406 26.9375 20.1406C27.4258 20.1406 27.9141 19.9453 28.2656 19.5938C28.6172 19.2422 28.8125 18.7734 28.8125 18.2656C28.8125 17.7773 28.6172 17.2891 28.2656 16.9375C27.9141 16.5859 27.4453 16.3906 26.9375 16.3906Z" fill="url(#paint2_linear_35_397)"/>
<path d="M20.9609 16.3906C20.4727 16.3906 19.9844 16.5859 19.6328 16.9375C19.2812 17.2891 19.0859 17.7578 19.0859 18.2656C19.0859 18.7539 19.2812 19.2422 19.6328 19.5938C19.9844 19.9453 20.4531 20.1406 20.9609 20.1406C21.4492 20.1406 21.9375 19.9453 22.2891 19.5938C22.6406 19.2422 22.8359 18.7734 22.8359 18.2656C22.8359 17.7773 22.6406 17.2891 22.2891 16.9375C21.9375 16.5859 21.4492 16.3906 20.9609 16.3906Z" fill="url(#paint3_linear_35_397)"/>
<path d="M32.9336 16.3906C32.4453 16.3906 31.957 16.5859 31.6055 16.9375C31.2539 17.2891 31.0586 17.7578 31.0586 18.2656C31.0586 18.7539 31.2539 19.2422 31.6055 19.5938C31.957 19.9453 32.4258 20.1406 32.9336 20.1406C33.4219 20.1406 33.9102 19.9453 34.2617 19.5938C34.6133 19.2422 34.8086 18.7734 34.8086 18.2656C34.8086 17.7773 34.6133 17.2891 34.2617 16.9375C33.8906 16.5859 33.4219 16.3906 32.9336 16.3906Z" fill="url(#paint4_linear_35_397)"/>
<path d="M68.6953 65.4141C69.0469 65.7656 69.5156 65.9609 70.0234 65.9609C70.5117 65.9609 71 65.7656 71.3515 65.4141C71.7031 65.0625 71.8984 64.5937 71.8984 64.0859C71.8984 63.5977 71.7031 63.1094 71.3515 62.7578C71 62.4062 70.5312 62.2109 70.0234 62.2109C69.5352 62.2109 69.0469 62.4062 68.6953 62.7578C68.3437 63.1094 68.1484 63.5781 68.1484 64.0859C68.1484 64.5937 68.3437 65.082 68.6953 65.4141Z" fill="url(#paint5_linear_35_397)"/>
<path d="M26.9766 48.2852C26.1953 47.8945 25.3164 47.6992 24.457 47.6992C21.293 47.6992 18.6953 50.2773 18.6953 53.4609C18.6953 56.6445 21.2734 59.2227 24.457 59.2227C27.6406 59.2227 30.2188 56.6445 30.2188 53.4609C30.2188 52.582 30.0234 51.7227 29.6328 50.9414L38.1875 42.3867C38.9102 42.6992 39.6719 42.8555 40.4727 42.8555C41.3516 42.8555 42.2109 42.6602 42.9922 42.2695L52.875 52.1524C52.4063 52.9922 52.1719 53.9492 52.1719 54.9063C52.1719 58.0703 54.75 60.668 57.9336 60.668C61.1172 60.668 63.6953 58.0898 63.6953 54.9063C63.6953 54.0273 63.5 53.168 63.1094 52.3867L72.9531 42.543C73.5586 42.7578 74.1836 42.8555 74.8281 42.8555C77.9922 42.8555 80.5899 40.2773 80.5899 37.0938C80.5899 33.9102 78.0117 31.332 74.8281 31.332C71.6641 31.332 69.0664 33.9102 69.0664 37.0938C69.0664 38.207 69.3789 39.2813 69.9844 40.1992L60.4531 49.7305C59.6719 49.3398 58.793 49.1445 57.9336 49.1445C57.1328 49.1445 56.3711 49.3008 55.6484 49.6133L45.6484 39.6133C46.0391 38.832 46.2344 37.9531 46.2344 37.0938C46.2344 33.9297 43.6563 31.332 40.4727 31.332C37.2891 31.332 34.7109 33.9102 34.7109 37.0938C34.7109 38.0703 34.9648 39.0078 35.4141 39.8672L26.9766 48.2852ZM72.7774 37.0742C72.7774 35.9609 73.6758 35.0625 74.7891 35.0625C75.9024 35.0625 76.8008 35.9609 76.8008 37.0742C76.8008 38.1875 75.9024 39.0859 74.7891 39.0859C73.6758 39.1055 72.7774 38.1875 72.7774 37.0742ZM55.8828 54.8867C55.8828 53.7734 56.7813 52.875 57.8945 52.875C59.0078 52.875 59.9063 53.7734 59.9063 54.8867C59.9063 56 59.0078 56.8984 57.8945 56.8984C56.7813 56.8984 55.8828 56 55.8828 54.8867ZM38.4414 37.0742C38.4414 35.9609 39.3398 35.0625 40.4531 35.0625C41.5664 35.0625 42.4648 35.9609 42.4648 37.0742C42.4648 38.1875 41.5664 39.0859 40.4531 39.0859C39.3398 39.0859 38.4414 38.1875 38.4414 37.0742ZM26.4687 53.4609C26.4687 54.5742 25.5703 55.4727 24.457 55.4727C23.3438 55.4727 22.4453 54.5742 22.4453 53.4609C22.4453 52.3477 23.3438 51.4492 24.457 51.4492C25.5703 51.4492 26.4687 52.3477 26.4687 53.4609Z" fill="url(#paint6_linear_35_397)"/>
<path d="M32.5234 33.5781C33.0117 33.5781 33.5 33.3828 33.8516 33.0312C34.2031 32.6797 34.3984 32.2109 34.3984 31.7031C34.3984 31.1953 34.2031 30.7266 33.8516 30.375C33.5 30.0234 33.0312 29.8281 32.5234 29.8281C32.0352 29.8281 31.5469 30.0234 31.1953 30.375C30.8437 30.7266 30.6484 31.1953 30.6484 31.7031C30.6484 32.2109 30.8437 32.6797 31.1953 33.0312C31.5469 33.3828 32.0352 33.5781 32.5234 33.5781Z" fill="url(#paint7_linear_35_397)"/>
<path d="M19.7695 33.5781H26.9375C27.9727 33.5781 28.8125 32.7383 28.8125 31.7031C28.8125 30.668 27.9727 29.8281 26.9375 29.8281H19.7695C18.7344 29.8281 17.8945 30.668 17.8945 31.7031C17.8945 32.7383 18.7344 33.5781 19.7695 33.5781Z" fill="url(#paint8_linear_35_397)"/>
<path d="M19.7695 40.7461H26.9375C27.9727 40.7461 28.8125 39.9063 28.8125 38.8711C28.8125 37.8359 27.9727 36.9961 26.9375 36.9961H19.7695C18.7344 36.9961 17.8945 37.8359 17.8945 38.8711C17.8945 39.9258 18.7344 40.7461 19.7695 40.7461Z" fill="url(#paint9_linear_35_397)"/>
<defs>
<linearGradient id="paint0_linear_35_397" x1="49.6621" y1="11" x2="49.6621" y2="88.3047" gradientUnits="userSpaceOnUse">
<stop stop-color="#66D7EC"/>
<stop offset="1" stop-color="#3B8EDB"/>
</linearGradient>
<linearGradient id="paint1_linear_35_397" x1="61.4883" y1="16.3906" x2="61.4883" y2="20.1406" gradientUnits="userSpaceOnUse">
<stop stop-color="#66D7EC"/>
<stop offset="1" stop-color="#3B8EDB"/>
</linearGradient>
<linearGradient id="paint2_linear_35_397" x1="26.9375" y1="16.3906" x2="26.9375" y2="20.1406" gradientUnits="userSpaceOnUse">
<stop stop-color="#66D7EC"/>
<stop offset="1" stop-color="#3B8EDB"/>
</linearGradient>
<linearGradient id="paint3_linear_35_397" x1="20.9609" y1="16.3906" x2="20.9609" y2="20.1406" gradientUnits="userSpaceOnUse">
<stop stop-color="#66D7EC"/>
<stop offset="1" stop-color="#3B8EDB"/>
</linearGradient>
<linearGradient id="paint4_linear_35_397" x1="32.9336" y1="16.3906" x2="32.9336" y2="20.1406" gradientUnits="userSpaceOnUse">
<stop stop-color="#66D7EC"/>
<stop offset="1" stop-color="#3B8EDB"/>
</linearGradient>
<linearGradient id="paint5_linear_35_397" x1="70.0234" y1="62.2109" x2="70.0234" y2="65.9609" gradientUnits="userSpaceOnUse">
<stop stop-color="#66D7EC"/>
<stop offset="1" stop-color="#3B8EDB"/>
</linearGradient>
<linearGradient id="paint6_linear_35_397" x1="49.6426" y1="31.332" x2="49.6426" y2="60.668" gradientUnits="userSpaceOnUse">
<stop stop-color="#66D7EC"/>
<stop offset="1" stop-color="#3B8EDB"/>
</linearGradient>
<linearGradient id="paint7_linear_35_397" x1="32.5234" y1="29.8281" x2="32.5234" y2="33.5781" gradientUnits="userSpaceOnUse">
<stop stop-color="#66D7EC"/>
<stop offset="1" stop-color="#3B8EDB"/>
</linearGradient>
<linearGradient id="paint8_linear_35_397" x1="23.3535" y1="29.8281" x2="23.3535" y2="33.5781" gradientUnits="userSpaceOnUse">
<stop stop-color="#66D7EC"/>
<stop offset="1" stop-color="#3B8EDB"/>
</linearGradient>
<linearGradient id="paint9_linear_35_397" x1="23.3535" y1="36.9961" x2="23.3535" y2="40.7461" gradientUnits="userSpaceOnUse">
<stop stop-color="#66D7EC"/>
<stop offset="1" stop-color="#3B8EDB"/>
</linearGradient>
</defs>
</svg>
