<svg width="100" height="100" viewBox="0 0 100 100" fill="none" xmlns="http://www.w3.org/2000/svg">
<path d="M83.207 17H80.0234H76.2539H22.8164H19.0469H15.8633C13.1875 17 11 19.1875 11 21.8633V64.7734C11 67.4492 13.1875 69.6367 15.8633 69.6367H41.6836V72.4296H39.2422C36.5664 72.4296 34.3789 74.6171 34.3789 77.2929V80.2812C34.3789 81.3163 35.2188 82.1562 36.2539 82.1562H62.7773C63.8125 82.1562 64.6523 81.3163 64.6523 80.2812V77.2929C64.6523 74.6171 62.4648 72.4296 59.7891 72.4296H57.3477V69.6367H83.168C85.8437 69.6367 88.0312 67.4492 88.0312 64.7734V21.8633C88.0703 19.168 85.8828 17 83.207 17ZM59.8281 76.1796C60.4336 76.1796 60.9219 76.6679 60.9219 77.2734V78.3671H38.168V77.2734C38.168 76.6679 38.6562 76.1796 39.2617 76.1796H59.8281ZM45.4727 72.4101V69.6171H53.6367V72.4101H45.4727ZM84.3008 64.7538C84.3008 65.3593 83.8125 65.8476 83.207 65.8476H15.8828C15.2773 65.8476 14.7891 65.3593 14.7891 64.7538V59.4804H84.3203V64.7538H84.3008ZM49.6914 40.457C48.4805 40.457 47.3867 39.832 46.7812 38.7773C46.1758 37.7226 46.1758 36.4726 46.7812 35.4375L49.6914 30.3984L52.6016 35.4375C53.207 36.4922 53.207 37.7422 52.6016 38.7968C51.9961 39.8515 50.9023 40.457 49.6914 40.457ZM51.4492 50.2812H47.543C47.7383 47.1953 48.0312 44.8515 48.2656 43.3281C49.0664 43.5039 49.9258 43.5429 50.7656 43.3867C50.9805 44.8906 51.2734 47.1953 51.4492 50.2812ZM47.3672 55.7304V55.4375C47.3672 54.7148 47.3867 54.0117 47.4062 53.289H51.5859C51.6055 53.9921 51.625 54.7148 51.625 55.4375V55.7304H53.3828H45.6875H47.3672ZM84.3008 55.7304H80.0234H76.2539H72.875V27.4687C72.875 26.6289 72.1914 25.9648 71.3711 25.9648H61.6445C60.8047 25.9648 60.1406 26.6484 60.1406 27.4687V55.7109H63.168V28.9922H69.8672V30.8476H68.9492C68.1094 30.8476 67.4453 31.5312 67.4453 32.3515C67.4453 33.1914 68.1289 33.8554 68.9492 33.8554H69.8672V36.9219H68.9492C68.1094 36.9219 67.4453 37.6054 67.4453 38.4258C67.4453 39.2656 68.1289 39.9297 68.9492 39.9297H69.8672V42.9961H68.9492C68.1094 42.9961 67.4453 43.6797 67.4453 44.5C67.4453 45.3203 68.1289 46.0039 68.9492 46.0039H69.8672V50.2812H68.9492C68.1094 50.2812 67.4453 50.9648 67.4453 51.7851C67.4453 52.6054 68.1289 53.289 68.9492 53.289H69.8672V55.7109H69.4375H65.668H63.1484H60.1406H57.2695H54.6523V55.4179C54.6328 54.1679 54.6133 52.9179 54.5547 51.707C54.3594 46.9609 53.8906 43.7187 53.6367 42.1172C56.1367 40.164 56.8203 36.6679 55.2383 33.914L51.0195 26.6094C50.7461 26.1406 50.2578 25.8476 49.7109 25.8476C49.1641 25.8476 48.6758 26.1406 48.4023 26.6094L44.1836 33.914C42.6602 36.5312 43.207 39.8515 45.4531 41.8437C45.1602 43.5039 44.6719 46.8437 44.457 51.707C44.3984 52.9375 44.3594 54.1875 44.3594 55.4179V55.7109H41.8398H33.4219H34.0078V38.6797H35.8438V55.7109H38.8711V37.1758C38.8711 36.9414 38.8125 36.7265 38.7148 36.5312L33.832 26.7851C33.5781 26.2773 33.0508 25.9453 32.4844 25.9453C31.918 25.9453 31.3906 26.2578 31.1367 26.7851L26.2734 36.5117L26.2539 36.5508C26.1562 36.7461 26.1172 36.9609 26.1172 37.1953V55.7304H29.1445V38.6992H30.9805V55.7304H29.6523H22.8359H19.0664H14.7891V21.8633C14.7891 21.2578 15.2773 20.7695 15.8828 20.7695H76.2734H80.043H83.2266C83.832 20.7695 84.3203 21.2578 84.3203 21.8633V55.7304H84.3008ZM30.043 35.6914L32.4648 30.8476L34.8867 35.6914H30.043Z" fill="url(#paint0_linear_35_374)"/>
<defs>
<linearGradient id="paint0_linear_35_374" x1="49.5159" y1="17" x2="49.5159" y2="82.1562" gradientUnits="userSpaceOnUse">
<stop stop-color="#66D7EC"/>
<stop offset="1" stop-color="#3B8EDB"/>
</linearGradient>
</defs>
</svg>
